<svg width="29" height="25" viewBox="0 0 29 25" fill="none" xmlns="http://www.w3.org/2000/svg">
<path d="M15.9072 9.77291H12.6785C11.8812 9.77291 11.2315 10.3435 11.2315 11.0437V13.8792C11.2315 14.5794 11.8812 15.15 12.6785 15.15H15.9072C16.7045 15.15 17.3542 14.5794 17.3542 13.8792V11.0437C17.3542 10.3435 16.7045 9.77291 15.9072 9.77291ZM16.3698 13.8792C16.3698 14.1039 16.1631 14.2855 15.9072 14.2855H12.6785C12.4226 14.2855 12.2159 14.1039 12.2159 13.8792V11.0437C12.2159 10.8189 12.4226 10.6374 12.6785 10.6374H15.9072C16.1631 10.6374 16.3698 10.8189 16.3698 11.0437V13.8792ZM8.13078 9.77291H4.90209C4.10476 9.77291 3.45509 10.3435 3.45509 11.0437V13.8792C3.45509 14.5794 4.10476 15.15 4.90209 15.15H8.13078C8.92811 15.15 9.57778 14.5794 9.57778 13.8792V11.0437C9.57778 10.3435 8.92811 9.77291 8.13078 9.77291ZM8.59342 13.8792C8.59342 14.1039 8.38671 14.2855 8.13078 14.2855H4.90209C4.64616 14.2855 4.43944 14.1039 4.43944 13.8792V11.0437C4.43944 10.8189 4.64616 10.6374 4.90209 10.6374H8.13078C8.38671 10.6374 8.59342 10.8189 8.59342 11.0437V13.8792ZM23.6836 9.77291H20.4549C19.6576 9.77291 19.0079 10.3435 19.0079 11.0437V13.8792C19.0079 14.5794 19.6576 15.15 20.4549 15.15H23.6836C24.4809 15.15 25.1306 14.5794 25.1306 13.8792V11.0437C25.1306 10.3435 24.4809 9.77291 23.6836 9.77291ZM24.1462 13.8792C24.1462 14.1039 23.9395 14.2855 23.6836 14.2855H20.4549C20.199 14.2855 19.9923 14.1039 19.9923 13.8792V11.0437C19.9923 10.8189 20.199 10.6374 20.4549 10.6374H23.6836C23.9395 10.6374 24.1462 10.8189 24.1462 11.0437V13.8792ZM15.9072 16.5115H12.6785C11.8812 16.5115 11.2315 17.0821 11.2315 17.7823V20.6178C11.2315 21.318 11.8812 21.8886 12.6785 21.8886H15.9072C16.7045 21.8886 17.3542 21.318 17.3542 20.6178V17.7823C17.3542 17.0821 16.7045 16.5115 15.9072 16.5115ZM16.3698 20.6178C16.3698 20.8425 16.1631 21.0241 15.9072 21.0241H12.6785C12.4226 21.0241 12.2159 20.8425 12.2159 20.6178V17.7823C12.2159 17.5575 12.4226 17.376 12.6785 17.376H15.9072C16.1631 17.376 16.3698 17.5575 16.3698 17.7823V20.6178ZM8.13078 16.5115H4.90209C4.10476 16.5115 3.45509 17.0821 3.45509 17.7823V20.6178C3.45509 21.318 4.10476 21.8886 4.90209 21.8886H8.13078C8.92811 21.8886 9.57778 21.318 9.57778 20.6178V17.7823C9.57778 17.0821 8.92811 16.5115 8.13078 16.5115ZM8.59342 20.6178C8.59342 20.8425 8.38671 21.0241 8.13078 21.0241H4.90209C4.64616 21.0241 4.43944 20.8425 4.43944 20.6178V17.7823C4.43944 17.5575 4.64616 17.376 4.90209 17.376H8.13078C8.38671 17.376 8.59342 17.5575 8.59342 17.7823V20.6178ZM23.6836 16.5115H20.4549C19.6576 16.5115 19.0079 17.0821 19.0079 17.7823V20.6178C19.0079 21.318 19.6576 21.8886 20.4549 21.8886H23.6836C24.4809 21.8886 25.1306 21.318 25.1306 20.6178V17.7823C25.1306 17.0821 24.4809 16.5115 23.6836 16.5115ZM24.1462 20.6178C24.1462 20.8425 23.9395 21.0241 23.6836 21.0241H20.4549C20.199 21.0241 19.9923 20.8425 19.9923 20.6178V17.7823C19.9923 17.5575 20.199 17.376 20.4549 17.376H23.6836C23.9395 17.376 24.1462 17.5575 24.1462 17.7823V20.6178ZM7.74688 11.6445C7.94867 11.8044 7.96836 12.0767 7.78625 12.254L6.60503 13.421C6.51643 13.5118 6.38355 13.5636 6.25066 13.568H6.24082C6.10793 13.568 5.97996 13.5204 5.89137 13.4383L5.26138 12.8721C5.21608 12.8318 5.18026 12.7841 5.15598 12.7316C5.13171 12.6792 5.11945 12.623 5.1199 12.5664C5.12036 12.5098 5.13353 12.4539 5.15865 12.4017C5.18377 12.3496 5.22035 12.3023 5.2663 12.2626C5.31216 12.2228 5.3665 12.1914 5.42622 12.17C5.48593 12.1487 5.54985 12.138 5.61431 12.1384C5.67877 12.1388 5.74251 12.1503 5.80187 12.1724C5.86124 12.1944 5.91507 12.2266 5.96027 12.2669L6.22113 12.5003L7.05291 11.6791C7.23502 11.5019 7.54509 11.4846 7.74688 11.6445ZM15.4593 18.8283L14.9868 19.2433L15.4593 19.6582C15.528 19.7186 15.5747 19.7955 15.5935 19.8792C15.6123 19.9629 15.6023 20.0497 15.5649 20.1284C15.5274 20.2072 15.4642 20.2744 15.3832 20.3215C15.3022 20.3686 15.207 20.3935 15.1099 20.393C14.9819 20.393 14.8589 20.3498 14.7604 20.2677L14.2879 19.8527L13.8154 20.2677C13.717 20.3541 13.594 20.393 13.466 20.393C13.338 20.393 13.215 20.3498 13.1165 20.2677C13.0709 20.2277 13.0347 20.1802 13.01 20.1279C12.9853 20.0756 12.9726 20.0195 12.9726 19.9629C12.9726 19.9063 12.9853 19.8503 13.01 19.798C13.0347 19.7457 13.0709 19.6982 13.1165 19.6582L13.589 19.2433L13.1165 18.8283C13.071 18.7883 13.0348 18.7408 13.0102 18.6885C12.9855 18.6362 12.9728 18.5802 12.9728 18.5236C12.9728 18.467 12.9855 18.4109 13.0102 18.3587C13.0348 18.3064 13.071 18.2589 13.1165 18.2189C13.1621 18.1788 13.2162 18.1471 13.2757 18.1254C13.3353 18.1038 13.3991 18.0926 13.4635 18.0926C13.528 18.0926 13.5918 18.1038 13.6513 18.1254C13.7108 18.1471 13.7649 18.1788 13.8105 18.2189L14.283 18.6338L14.7555 18.2189C14.8011 18.1788 14.8552 18.1471 14.9147 18.1254C14.9742 18.1038 15.038 18.0926 15.1025 18.0926C15.1669 18.0926 15.2307 18.1038 15.2903 18.1254C15.3498 18.1471 15.4039 18.1788 15.4495 18.2189C15.495 18.2589 15.5312 18.3064 15.5558 18.3587C15.5805 18.4109 15.5932 18.467 15.5932 18.5236C15.5932 18.5802 15.5805 18.6362 15.5558 18.6885C15.5312 18.7408 15.495 18.7883 15.4495 18.8283H15.4593ZM15.5184 11.6445C15.7202 11.8044 15.7398 12.0767 15.5577 12.254L14.3765 13.421C14.2879 13.5118 14.155 13.5636 14.0221 13.568H14.0123C13.8794 13.568 13.7514 13.5204 13.6629 13.4383L13.0329 12.8721C12.9873 12.8318 12.9514 12.7839 12.9272 12.7313C12.903 12.6786 12.891 12.6223 12.892 12.5655C12.8929 12.5088 12.9067 12.4527 12.9326 12.4007C12.9585 12.3487 12.9959 12.3018 13.0427 12.2626C13.0886 12.2226 13.1431 12.1911 13.203 12.1698C13.263 12.1486 13.3271 12.1381 13.3918 12.1389C13.4564 12.1397 13.5202 12.1518 13.5794 12.1745C13.6386 12.1973 13.6921 12.2301 13.7367 12.2713L13.9975 12.5047L14.8293 11.6834C15.0114 11.5062 15.3215 11.4889 15.5233 11.6488L15.5184 11.6445ZM23.2948 18.3831C23.4966 18.543 23.5163 18.8153 23.3342 18.9926L22.1529 20.1596C22.0643 20.2504 21.9314 20.3022 21.7986 20.3066H21.7887C21.6558 20.3066 21.5279 20.259 21.4393 20.1769L20.8093 19.6107C20.764 19.5704 20.7282 19.5227 20.7039 19.4702C20.6796 19.4178 20.6673 19.3616 20.6678 19.305C20.6683 19.2484 20.6814 19.1925 20.7065 19.1403C20.7317 19.0882 20.7683 19.0409 20.8142 19.0012C20.8601 18.9614 20.9144 18.93 20.9741 18.9086C21.0338 18.8873 21.0977 18.8766 21.1622 18.877C21.2267 18.8774 21.2904 18.8889 21.3498 18.911C21.4091 18.933 21.463 18.9652 21.5082 19.0055L21.769 19.2389L22.6008 18.4177C22.7829 18.2405 23.093 18.2232 23.2948 18.3831ZM7.74196 18.3831C7.94375 18.543 7.96344 18.8153 7.78133 18.9926L6.60011 20.1596C6.51151 20.2504 6.37862 20.3022 6.24574 20.3066H6.23589C6.10301 20.3066 5.97504 20.259 5.88645 20.1769L5.25646 19.6107C5.21115 19.5704 5.17534 19.5227 5.15106 19.4702C5.12678 19.4178 5.11452 19.3616 5.11498 19.305C5.11544 19.2484 5.1286 19.1925 5.15373 19.1403C5.17885 19.0882 5.21543 19.0409 5.26138 19.0012C5.30724 18.9614 5.36158 18.93 5.42129 18.9086C5.48101 18.8873 5.54493 18.8766 5.60939 18.877C5.67385 18.8774 5.73759 18.8889 5.79695 18.911C5.85632 18.933 5.91014 18.9652 5.95535 19.0055L6.21621 19.2389L7.04799 18.4177C7.23009 18.2405 7.54017 18.2232 7.74196 18.3831ZM23.2308 12.0897L22.7583 12.5047L23.2308 12.9196C23.2995 12.98 23.3462 13.0569 23.365 13.1406C23.3838 13.2243 23.3738 13.3111 23.3364 13.3898C23.2989 13.4686 23.2357 13.5358 23.1547 13.5829C23.0736 13.63 22.9785 13.6549 22.8813 13.6544C22.7534 13.6544 22.6303 13.6112 22.5319 13.5291L22.0594 13.1141L21.5869 13.5291C21.4885 13.6155 21.3654 13.6544 21.2375 13.6544C21.1095 13.6544 20.9865 13.6112 20.888 13.5291C20.8424 13.4891 20.8062 13.4416 20.7815 13.3893C20.7568 13.337 20.7441 13.2809 20.7441 13.2243C20.7441 13.1677 20.7568 13.1117 20.7815 13.0594C20.8062 13.0071 20.8424 12.9596 20.888 12.9196L21.3605 12.5047L20.888 12.0897C20.8425 12.0497 20.8063 12.0022 20.7817 11.9499C20.757 11.8976 20.7443 11.8416 20.7443 11.785C20.7443 11.7284 20.757 11.6724 20.7817 11.6201C20.8063 11.5678 20.8425 11.5203 20.888 11.4803C20.9336 11.4402 20.9877 11.4085 21.0472 11.3868C21.1068 11.3652 21.1706 11.354 21.235 11.354C21.2995 11.354 21.3633 11.3652 21.4228 11.3868C21.4823 11.4085 21.5364 11.4402 21.582 11.4803L22.0545 11.8952L22.527 11.4803C22.5725 11.4402 22.6266 11.4085 22.6862 11.3868C22.7457 11.3652 22.8095 11.354 22.874 11.354C22.9384 11.354 23.0022 11.3652 23.0618 11.3868C23.1213 11.4085 23.1754 11.4402 23.221 11.4803C23.2665 11.5203 23.3027 11.5678 23.3273 11.6201C23.352 11.6724 23.3647 11.7284 23.3647 11.785C23.3647 11.8416 23.352 11.8976 23.3273 11.9499C23.3027 12.0022 23.2665 12.0497 23.221 12.0897H23.2308ZM26.2036 2.69717H23.9494V1.43935C23.9494 0.648358 23.216 0 22.3104 0H21.5426C20.6419 0 19.9037 0.644035 19.9037 1.43935V2.69717H16.3009V1.43935C16.3009 0.648358 15.5676 0 14.662 0H13.8942C12.9935 0 12.2552 0.644035 12.2552 1.43935V2.69717H8.65249V1.43935C8.65249 0.648358 7.91914 0 7.01353 0H6.24574C5.34505 0 4.60678 0.644035 4.60678 1.43935V2.69717H2.35261C1.05326 2.69717 0 3.62648 0 4.76327V22.5239C0 23.6651 1.05818 24.59 2.35261 24.59H26.1937C27.4931 24.59 28.5463 23.6607 28.5463 22.5239V4.76327C28.5463 3.62216 27.4881 2.69717 26.1937 2.69717H26.2036ZM20.893 1.43935C20.893 1.12382 21.1883 0.864477 21.5475 0.864477H22.3153C22.6746 0.864477 22.9699 1.12382 22.9699 1.43935V4.79353C22.9699 5.10906 22.6746 5.3684 22.3153 5.3684H21.5475C21.1883 5.3684 20.893 5.10906 20.893 4.79353V1.43935ZM13.2494 1.43935C13.2494 1.12382 13.5447 0.864477 13.904 0.864477H14.6718C15.0311 0.864477 15.3264 1.12382 15.3264 1.43935V4.79353C15.3264 5.10906 15.0311 5.3684 14.6718 5.3684H13.904C13.5447 5.3684 13.2494 5.10906 13.2494 4.79353V1.43935ZM5.60591 1.43935C5.60591 1.12382 5.90121 0.864477 6.2605 0.864477H7.0283C7.38759 0.864477 7.6829 1.12382 7.6829 1.43935V4.79353C7.6829 5.10906 7.38759 5.3684 7.0283 5.3684H6.2605C5.90121 5.3684 5.60591 5.10906 5.60591 4.79353V1.43935ZM2.36738 3.56165H4.62155V4.79353C4.62155 5.58452 5.3549 6.23288 6.2605 6.23288H7.0283C7.92899 6.23288 8.66725 5.58884 8.66725 4.79353V3.56165H12.27V4.79353C12.27 5.58452 13.0033 6.23288 13.9089 6.23288H14.6767C15.5774 6.23288 16.3157 5.58884 16.3157 4.79353V3.56165H19.9184V4.79353C19.9184 5.58452 20.6518 6.23288 21.5574 6.23288H22.3252C23.2259 6.23288 23.9641 5.58884 23.9641 4.79353V3.56165H26.2183C26.9713 3.56165 27.5866 4.10194 27.5866 4.76327V7.3956H1.00404V4.76327C1.00404 4.10194 1.61927 3.56165 2.3723 3.56165H2.36738ZM26.2085 23.7256H2.3723C1.61927 23.7256 1.00404 23.1853 1.00404 22.5239V8.26008H27.5816V22.5239C27.5816 23.1853 26.9664 23.7256 26.2134 23.7256H26.2085Z" fill="#2F4858"/>
</svg>
