<svg width="24" height="24" viewBox="0 0 24 24" fill="none" xmlns="http://www.w3.org/2000/svg">
<g clip-path="url(#clip0_75_173)">
<path d="M22.7812 12.2062C22.6313 12.2062 22.5 12.1499 22.3875 12.0374L12.4312 2.0249C12.3187 1.9124 12.1687 1.8374 12 1.8374C11.85 1.8374 11.7 1.89365 11.5687 2.0249L1.6125 11.9999C1.5 12.1124 1.36875 12.1687 1.21875 12.1687C1.06875 12.1687 0.937498 12.1124 0.843748 12.0187C0.731248 11.9249 0.674998 11.8124 0.674998 11.6624C0.656248 11.4937 0.731248 11.3249 0.843748 11.2124L10.7437 1.2374C11.0812 0.899902 11.5125 0.712402 11.9812 0.712402C12.45 0.712402 12.8812 0.899902 13.2187 1.2374L23.175 11.2499C23.2875 11.3624 23.3438 11.5124 23.3438 11.6812C23.3438 11.8499 23.25 11.9999 23.1375 12.0937C23.025 12.1687 22.8937 12.2062 22.7812 12.2062Z" fill="#2F4858"/>
<path d="M14.9438 23.4001V22.6126H14.1563V21.1876C14.1563 19.9876 13.1813 19.0313 12 19.0313C10.8 19.0313 9.84375 20.0063 9.84375 21.1876V22.6126H9.05625V23.4001H4.6125C3.65625 23.4001 2.8875 22.6313 2.8875 21.6751V11.9438C2.8875 11.6251 3.13125 11.3813 3.45 11.3813C3.76875 11.3813 4.0125 11.6251 4.0125 11.9438V21.6751C4.0125 22.0126 4.275 22.2751 4.6125 22.2751H8.71875V21.2063C8.71875 19.3876 10.2 17.9251 12 17.9251C13.8 17.9251 15.2813 19.4063 15.2813 21.2063V22.2751H19.3875C19.725 22.2751 19.9875 22.0126 19.9875 21.6751V11.9438C19.9875 11.6251 20.2313 11.3813 20.55 11.3813C20.8688 11.3813 21.1125 11.6251 21.1125 11.9438V21.6751C21.1125 22.6313 20.3438 23.4001 19.3875 23.4001H14.9438Z" fill="#2F4858"/>
<path d="M14.1562 23.3999V22.2749H15.2812V23.3999H14.1562ZM8.71875 23.3999V22.2749H9.84375V23.3999H8.71875Z" fill="#2F4858"/>
</g>
<defs>
<clipPath id="clip0_75_173">
<rect width="24" height="24" fill="white"/>
</clipPath>
</defs>
</svg>
