<svg width="22" height="26" viewBox="0 0 22 26" fill="none" xmlns="http://www.w3.org/2000/svg">
<path d="M14.1257 21.9455C14.1257 23.4733 12.7263 24.7118 11 24.7118C9.2737 24.7118 7.87431 23.4733 7.87431 21.9455M11 2.58079C6.46858 2.58079 2.79512 5.76564 2.79512 9.69434V11.7619C2.79512 13.0051 2.50383 14.2356 1.9389 15.3784L1.14939 16.9756C0.633755 18.0186 1.51629 19.1791 2.82528 19.1791H19.1748C20.4838 19.1791 21.3662 18.0186 20.8506 16.9756L20.0611 15.3784C19.4963 14.2356 19.2049 13.0051 19.2049 11.7619V9.69434C19.2049 5.76564 15.5315 2.58079 11 2.58079ZM11 2.58079V1" stroke="#2F4858" stroke-width="1.5" stroke-linecap="round" stroke-linejoin="round"/>
</svg>
