<svg width="24" height="27" viewBox="0 0 24 27" fill="none" xmlns="http://www.w3.org/2000/svg">
<path d="M0.731286 26.3465C0.320773 26.3465 0 26.0682 0 25.715C0 25.3601 0.320773 25.0827 0.731286 25.0827H2.64638V5.13262L2.57859 5.11533C1.94182 4.94985 1.40625 4.63122 0.988095 4.17015C0.571854 3.71321 0.361824 3.18134 0.361824 2.58937C0.361824 1.86484 0.655866 1.24734 1.23536 0.754168C1.82058 0.253585 2.54136 0 3.37766 0C4.22542 0 4.93093 0.246175 5.53524 0.753345C6.12428 1.25063 6.4231 1.86813 6.4231 2.58854C6.4231 3.17146 6.20734 3.70333 5.78155 4.16933C5.3529 4.64357 4.82878 4.95232 4.17673 5.11369L4.10799 5.13098V5.91808L14.0119 8.03238C14.3546 8.10566 14.5866 8.35924 14.5866 8.66635V10.3237L23.4508 12.3639C23.7897 12.4405 23.9692 12.6233 23.9969 12.9246C24.0226 13.2235 23.889 13.4367 23.5988 13.5586L14.1446 17.4875C14.0491 17.5418 13.9517 17.5682 13.8391 17.5682C13.7016 17.5682 13.567 17.5328 13.44 17.4652C13.2137 17.3434 13.1078 17.1713 13.1078 16.9251V15.6424L4.10895 18.4104V25.0827H6.05363C6.47179 25.0827 6.8002 25.3601 6.8002 25.715C6.8002 26.0682 6.47274 26.3465 6.05363 26.3465H0.731286ZM4.10895 17.0668L13.1078 14.3012V9.16199L4.10895 7.24034V17.0668ZM14.5866 15.9149L21.1624 13.1691L14.5866 11.646V15.9149ZM3.37384 1.26298C2.96047 1.26298 2.57573 1.39966 2.28837 1.6483C1.69169 2.16206 1.6917 3.01009 2.28742 3.53948C2.57096 3.79142 2.95665 3.92974 3.37384 3.92974C3.79104 3.92974 4.18341 3.79142 4.48127 3.54031C4.78773 3.28343 4.95575 2.94257 4.95289 2.58113C4.95002 2.22463 4.782 1.89365 4.48032 1.64666C4.17959 1.39966 3.78627 1.26298 3.37384 1.26298Z" fill="#2F4858"/>
</svg>
